<svg width="24" height="25" viewBox="0 0 24 25" fill="none" xmlns="http://www.w3.org/2000/svg">
<path fill-rule="evenodd" clip-rule="evenodd" d="M24 12.5C24 14.8734 23.2962 17.1934 21.9776 19.1668C20.6591 21.1402 18.7849 22.6783 16.5922 23.5866C14.3995 24.4948 11.9867 24.7324 9.65892 24.2694C7.33115 23.8064 5.19295 22.6635 3.51472 20.9853C1.83649 19.307 0.693605 17.1689 0.230582 14.8411C-0.23244 12.5133 0.00519871 10.1005 0.91345 7.9078C1.8217 5.71509 3.35977 3.84094 5.33316 2.52236C7.30655 1.20379 9.62663 0.5 12 0.5C15.1826 0.5 18.2349 1.76428 20.4853 4.01472C22.7357 6.26515 24 9.3174 24 12.5ZM5.92441 12.9097L5.97241 12.8377L9.09241 7.96566C9.10291 7.94802 9.11832 7.93382 9.13677 7.9248C9.15521 7.91578 9.17588 7.91233 9.19626 7.91488C9.21663 7.91742 9.23582 7.92586 9.25147 7.93914C9.26713 7.95242 9.27857 7.96998 9.28441 7.98967C9.81241 9.16567 10.2444 10.6057 10.0524 11.5177C9.91111 11.9937 9.70088 12.4465 9.42841 12.8617C9.4029 12.9337 9.36194 12.9992 9.30841 13.0537C9.29699 13.0683 9.28244 13.0802 9.26583 13.0885C9.24922 13.0968 9.23097 13.1013 9.21241 13.1017H5.99641C5.97777 13.0954 5.96076 13.0851 5.94662 13.0715C5.93247 13.0578 5.92155 13.0412 5.91465 13.0228C5.90776 13.0044 5.90505 12.9847 5.90674 12.9651C5.90842 12.9456 5.91446 12.9266 5.92441 12.9097ZM19.8236 14.5851V13.8171C19.8236 13.7451 19.7756 13.6971 19.6316 13.7691L15.9836 14.8251H15.9836C15.9596 14.8251 15.9596 14.8251 15.9356 14.8491C15.6274 15.1755 15.3603 15.4196 15.217 15.5506C15.1706 15.593 15.1372 15.6235 15.1196 15.6411C14.8991 15.8297 14.6178 15.932 14.3276 15.9291H13.0076V14.5851H14.0636C14.0767 14.5867 14.0899 14.5853 14.1023 14.5812C14.1148 14.577 14.1262 14.5702 14.1356 14.5611L14.2796 14.4411C14.3575 14.3839 14.4298 14.3197 14.4956 14.2491L14.496 14.2484L14.832 13.9124L14.8316 13.9131C14.8676 13.8651 14.9096 13.8171 14.9516 13.7691C14.9936 13.7211 15.0356 13.6731 15.0716 13.6251C15.135 13.5591 15.1913 13.4867 15.2396 13.4091C15.2636 13.3731 15.2936 13.3371 15.3236 13.3011C15.3536 13.2651 15.3836 13.2291 15.4076 13.1931C15.4388 13.124 15.4792 13.0594 15.5276 13.0011C15.5709 12.9392 15.6109 12.8751 15.6476 12.8091C15.745 12.6462 15.8331 12.4779 15.9116 12.3051C15.9504 12.2197 15.9825 12.1314 16.0076 12.0411C16.0196 11.9931 16.0316 11.9511 16.0436 11.9091C16.0556 11.8671 16.0676 11.8251 16.0796 11.7771C16.1116 11.5707 16.1196 11.3613 16.1036 11.1531C16.1088 11.0881 16.1006 11.0228 16.0796 10.9611C16.0812 10.9198 16.073 10.8786 16.0556 10.8411C16.0283 10.6312 15.9633 10.4279 15.8636 10.2411C15.8516 10.2051 15.8336 10.1691 15.8156 10.1331C15.7976 10.0971 15.7796 10.0611 15.7676 10.0251C15.7196 9.95309 15.6776 9.88109 15.6356 9.80909C15.5936 9.73709 15.5516 9.66509 15.5036 9.59309C15.4769 9.53424 15.4448 9.478 15.4076 9.42509C15.3878 9.3987 15.3662 9.36868 15.3438 9.33753C15.2847 9.25536 15.2198 9.1653 15.1676 9.11309C15.1316 9.07709 15.1016 9.03509 15.0716 8.99309C15.0416 8.95109 15.0116 8.90909 14.9756 8.87309C14.9396 8.83709 14.9096 8.80109 14.8796 8.76509C14.8496 8.72909 14.8196 8.69309 14.7836 8.65709C14.5638 8.41322 14.3315 8.18091 14.0876 7.96109C14.0721 7.9301 14.0466 7.90911 14.0176 7.8852C14.0017 7.87209 13.9846 7.8581 13.9676 7.84109C13.7996 7.69709 13.6316 7.5531 13.5116 7.4571C13.4507 7.41518 13.3944 7.36691 13.3436 7.31309C13.2917 7.27813 13.2434 7.23792 13.1996 7.19309C13.1996 7.18673 13.1971 7.18062 13.1926 7.17612C13.1881 7.17162 13.182 7.16909 13.1756 7.16909L13.0316 7.12109V5.96909C13.034 5.88022 13.0182 5.7918 12.9852 5.70922C12.9522 5.62665 12.9028 5.55165 12.84 5.48878C12.7771 5.42591 12.7021 5.3765 12.6195 5.34354C12.5369 5.31059 12.4485 5.29479 12.3596 5.2971C12.1788 5.30212 12.0072 5.3778 11.8816 5.50792C11.7559 5.63804 11.6863 5.81223 11.6876 5.99309V6.7851L11.6156 6.76109L11.4236 6.71309L11.2556 6.66509L9.93564 6.3051C9.88764 6.2811 9.83964 6.35309 9.86364 6.40109L10.0796 6.7851L10.1516 6.92909C10.1636 6.96509 10.1816 7.00109 10.1996 7.03709C10.2176 7.07309 10.2356 7.10909 10.2476 7.14509C10.2596 7.1811 10.2776 7.2111 10.2956 7.2411C10.3136 7.2711 10.3316 7.3011 10.3436 7.3371C10.4156 7.48109 10.4876 7.64907 10.5596 7.81706L10.5596 7.8171L10.7036 8.1771C10.8337 8.49047 10.9459 8.81099 11.0396 9.1371C11.0825 9.23743 11.1147 9.34201 11.1356 9.44909L11.1596 9.4971C11.2031 9.65458 11.2352 9.815 11.2556 9.97709C11.2833 10.079 11.2994 10.1836 11.3036 10.2891C11.3036 10.3491 11.3096 10.4091 11.3156 10.4691C11.3216 10.5291 11.3276 10.5891 11.3276 10.6491C11.3468 10.76 11.3548 10.8726 11.3516 10.9851C11.3537 11.2508 11.3296 11.5161 11.2796 11.7771L11.2076 11.9931C11.1987 12.0199 11.1864 12.05 11.1733 12.0822C11.1512 12.1366 11.1267 12.1968 11.1116 12.2571C11.0921 12.3149 11.068 12.3711 11.0396 12.4251C10.9199 12.7246 10.7754 13.0136 10.6076 13.2891C10.3676 13.6971 10.1516 14.0331 9.98364 14.2731C9.96569 14.3092 9.94129 14.3417 9.91164 14.3691C9.90043 14.3858 9.89411 14.4053 9.89339 14.4254C9.89266 14.4455 9.89757 14.4654 9.90755 14.4829C9.91753 14.5003 9.93219 14.5147 9.94987 14.5242C9.96756 14.5338 9.98756 14.5383 10.0076 14.5371H11.7116V15.8811H9.98364C9.75514 15.8838 9.53047 15.8222 9.33527 15.7034C9.14007 15.5846 8.98219 15.4133 8.87964 15.2091C8.78216 14.9993 8.74081 14.7677 8.75964 14.5371C8.75741 14.506 8.74406 14.4768 8.72202 14.4547C8.69998 14.4327 8.67073 14.4193 8.63964 14.4171H5.11164C5.08674 14.4188 5.06329 14.4294 5.04563 14.4471C5.02798 14.4647 5.01733 14.4882 5.01564 14.5131V14.5851C5.01406 15.113 5.11648 15.6361 5.31705 16.1244C5.51762 16.6127 5.81241 17.0568 6.18458 17.4312C6.55676 17.8056 6.99904 18.103 7.48617 18.3065C7.97329 18.51 8.49573 18.6155 9.02364 18.6171H15.2876C16.445 18.6171 17.1087 17.5573 17.7643 16.5103C17.9516 16.2112 18.1383 15.9131 18.3356 15.6411C18.6716 15.1611 19.5116 14.7771 19.7516 14.6811C19.7996 14.6571 19.8236 14.6331 19.8236 14.5851Z" fill="white"/>
</svg>
