<svg width="22" height="25" viewBox="0 0 22 25" fill="none" xmlns="http://www.w3.org/2000/svg">
<path d="M8.88806 10.5703C8.20406 10.5703 7.66406 11.1703 7.66406 11.9023C7.66406 12.6343 8.21606 13.2343 8.88806 13.2343C9.57206 13.2343 10.1121 12.6343 10.1121 11.9023C10.1241 11.1703 9.57206 10.5703 8.88806 10.5703ZM13.2681 10.5703C12.5841 10.5703 12.0441 11.1703 12.0441 11.9023C12.0441 12.6343 12.5961 13.2343 13.2681 13.2343C13.9521 13.2343 14.4921 12.6343 14.4921 11.9023C14.4921 11.1703 13.9521 10.5703 13.2681 10.5703Z" fill="white"/>
<path d="M19.1025 0.5H3.0225C1.6665 0.5 0.5625 1.604 0.5625 2.972V19.196C0.5625 20.564 1.6665 21.668 3.0225 21.668H16.6305L15.9945 19.448L17.5305 20.876L18.9825 22.22L21.5625 24.5V2.972C21.5625 1.604 20.4585 0.5 19.1025 0.5ZM14.4705 16.172C14.4705 16.172 14.0385 15.656 13.6785 15.2C15.2505 14.756 15.8505 13.772 15.8505 13.772C15.3585 14.096 14.8905 14.324 14.4705 14.48C13.8705 14.732 13.2945 14.9 12.7305 14.996C11.5785 15.212 10.5225 15.152 9.6225 14.984C8.9385 14.852 8.3505 14.66 7.8585 14.468C7.5825 14.36 7.2825 14.228 6.9825 14.06C6.9465 14.036 6.9105 14.024 6.8745 14C6.8505 13.988 6.8385 13.976 6.8265 13.964C6.6105 13.844 6.4905 13.76 6.4905 13.76C6.4905 13.76 7.0665 14.72 8.5905 15.176C8.2305 15.632 7.7865 16.172 7.7865 16.172C5.1345 16.088 4.1265 14.348 4.1265 14.348C4.1265 10.484 5.8545 7.352 5.8545 7.352C7.5825 6.056 9.2265 6.092 9.2265 6.092L9.3465 6.236C7.1865 6.86 6.1905 7.808 6.1905 7.808C6.1905 7.808 6.4545 7.664 6.8985 7.46C8.1825 6.896 9.2025 6.74 9.6225 6.704C9.6945 6.692 9.7545 6.68 9.8265 6.68C10.5585 6.584 11.3865 6.56 12.2505 6.656C13.3905 6.788 14.6145 7.124 15.8625 7.808C15.8625 7.808 14.9145 6.908 12.8745 6.284L13.0425 6.092C13.0425 6.092 14.6865 6.056 16.4145 7.352C16.4145 7.352 18.1425 10.484 18.1425 14.348C18.1425 14.348 17.1225 16.088 14.4705 16.172Z" fill="white"/>
</svg>
