<svg width="24" height="24" viewBox="0 0 24 24" fill="none" xmlns="http://www.w3.org/2000/svg">
<path fill-rule="evenodd" clip-rule="evenodd" d="M24 12C24 14.3734 23.2962 16.6934 21.9776 18.6668C20.6591 20.6402 18.7849 22.1783 16.5922 23.0866C14.3995 23.9948 11.9867 24.2324 9.65892 23.7694C7.33115 23.3064 5.19295 22.1635 3.51472 20.4853C1.83649 18.807 0.693605 16.6689 0.230582 14.3411C-0.23244 12.0133 0.00519871 9.60051 0.91345 7.4078C1.8217 5.21509 3.35977 3.34094 5.33316 2.02236C7.30655 0.703786 9.62663 0 12 0C15.1826 0 18.2349 1.26428 20.4853 3.51472C22.7357 5.76515 24 8.8174 24 12ZM5.92441 12.4097L5.97241 12.3377L9.09241 7.46566C9.10291 7.44802 9.11832 7.43382 9.13676 7.4248C9.15521 7.41578 9.17588 7.41233 9.19626 7.41488C9.21663 7.41742 9.23582 7.42586 9.25147 7.43914C9.26713 7.45242 9.27857 7.46998 9.28441 7.48967C9.81241 8.66567 10.2444 10.1057 10.0524 11.0177C9.91111 11.4937 9.70088 11.9465 9.42841 12.3617C9.4029 12.4337 9.36194 12.4992 9.30841 12.5537C9.29699 12.5683 9.28244 12.5802 9.26583 12.5885C9.24922 12.5968 9.23097 12.6013 9.21241 12.6017H5.99641C5.97777 12.5954 5.96076 12.5851 5.94662 12.5715C5.93247 12.5578 5.92155 12.5412 5.91465 12.5228C5.90776 12.5044 5.90505 12.4847 5.90674 12.4651C5.90842 12.4456 5.91446 12.4266 5.92441 12.4097ZM19.8236 14.0851V13.3171C19.8236 13.2451 19.7756 13.1971 19.6316 13.2691L15.9836 14.3251H15.9836C15.9596 14.3251 15.9596 14.3251 15.9356 14.3491C15.6274 14.6755 15.3603 14.9196 15.217 15.0506C15.1706 15.093 15.1372 15.1235 15.1196 15.1411C14.8991 15.3297 14.6178 15.432 14.3276 15.4291H13.0076V14.0851H14.0636C14.0767 14.0867 14.0899 14.0853 14.1023 14.0812C14.1148 14.077 14.1262 14.0702 14.1356 14.0611L14.2796 13.9411C14.3575 13.8839 14.4298 13.8197 14.4956 13.7491L14.496 13.7484L14.832 13.4124L14.8316 13.4131C14.8676 13.3651 14.9096 13.3171 14.9516 13.2691C14.9936 13.2211 15.0356 13.1731 15.0716 13.1251C15.135 13.0591 15.1913 12.9867 15.2396 12.9091C15.2636 12.8731 15.2936 12.8371 15.3236 12.8011C15.3536 12.7651 15.3836 12.7291 15.4076 12.6931C15.4388 12.624 15.4792 12.5594 15.5276 12.5011C15.5709 12.4392 15.6109 12.3751 15.6476 12.3091C15.745 12.1462 15.8331 11.9779 15.9116 11.8051C15.9504 11.7197 15.9825 11.6314 16.0076 11.5411C16.0196 11.4931 16.0316 11.4511 16.0436 11.4091C16.0556 11.3671 16.0676 11.3251 16.0796 11.2771C16.1116 11.0707 16.1196 10.8613 16.1036 10.6531C16.1088 10.5881 16.1006 10.5228 16.0796 10.4611C16.0812 10.4198 16.073 10.3786 16.0556 10.3411C16.0283 10.1312 15.9633 9.92789 15.8636 9.74109C15.8516 9.70509 15.8336 9.66909 15.8156 9.63309C15.7976 9.59709 15.7796 9.5611 15.7676 9.52509C15.7196 9.45309 15.6776 9.38109 15.6356 9.30909C15.5936 9.23709 15.5516 9.16509 15.5036 9.09309C15.4769 9.03424 15.4448 8.978 15.4076 8.92509C15.3878 8.8987 15.3662 8.86869 15.3438 8.83753C15.2847 8.75536 15.2199 8.6653 15.1676 8.61309C15.1316 8.57709 15.1016 8.53509 15.0716 8.49309C15.0416 8.45109 15.0116 8.40909 14.9756 8.37309C14.9396 8.33709 14.9096 8.30109 14.8796 8.26509C14.8496 8.22909 14.8196 8.19309 14.7836 8.15709C14.5638 7.91322 14.3315 7.68091 14.0876 7.46109C14.0721 7.4301 14.0466 7.40911 14.0176 7.3852C14.0017 7.37209 13.9846 7.3581 13.9676 7.34109C13.7996 7.19709 13.6316 7.0531 13.5116 6.9571C13.4507 6.91518 13.3944 6.86691 13.3436 6.81309C13.2917 6.77813 13.2434 6.73792 13.1996 6.69309C13.1996 6.68673 13.1971 6.68062 13.1926 6.67612C13.1881 6.67162 13.182 6.66909 13.1756 6.66909L13.0316 6.62109V5.46909C13.034 5.38022 13.0182 5.2918 12.9852 5.20922C12.9522 5.12665 12.9028 5.05165 12.84 4.98878C12.7771 4.92591 12.7021 4.8765 12.6195 4.84354C12.5369 4.81059 12.4485 4.79479 12.3596 4.7971C12.1788 4.80212 12.0072 4.8778 11.8816 5.00792C11.7559 5.13804 11.6863 5.31223 11.6876 5.49309V6.2851L11.6156 6.26109L11.4236 6.21309L11.2556 6.1651L9.93564 5.8051C9.88764 5.7811 9.83964 5.85309 9.86364 5.90109L10.0796 6.2851L10.1516 6.42909C10.1636 6.46509 10.1816 6.50109 10.1996 6.53709C10.2176 6.57309 10.2356 6.60909 10.2476 6.64509C10.2596 6.6811 10.2776 6.7111 10.2956 6.7411C10.3136 6.7711 10.3316 6.8011 10.3436 6.8371C10.4156 6.9811 10.4876 7.1491 10.5596 7.3171L10.7036 7.6771C10.8337 7.99047 10.9459 8.31099 11.0396 8.6371C11.0825 8.73743 11.1147 8.84201 11.1356 8.94909L11.1596 8.9971C11.2031 9.15458 11.2352 9.315 11.2556 9.47709C11.2833 9.57896 11.2994 9.68362 11.3036 9.78909C11.3036 9.84909 11.3096 9.90909 11.3156 9.96909C11.3216 10.0291 11.3276 10.0891 11.3276 10.1491C11.3468 10.26 11.3548 10.3726 11.3516 10.4851C11.3537 10.7508 11.3296 11.0161 11.2796 11.2771L11.2076 11.4931C11.1987 11.5199 11.1864 11.55 11.1733 11.5822C11.1512 11.6366 11.1267 11.6968 11.1116 11.7571C11.0921 11.8149 11.068 11.8711 11.0396 11.9251C10.9199 12.2246 10.7754 12.5136 10.6076 12.7891C10.3676 13.1971 10.1516 13.5331 9.98364 13.7731C9.96569 13.8092 9.94129 13.8417 9.91164 13.8691C9.90043 13.8858 9.89411 13.9053 9.89339 13.9254C9.89266 13.9455 9.89757 13.9654 9.90755 13.9829C9.91753 14.0003 9.93219 14.0147 9.94987 14.0242C9.96756 14.0338 9.98756 14.0383 10.0076 14.0371H11.7116V15.3811H9.98364C9.75514 15.3838 9.53047 15.3222 9.33527 15.2034C9.14007 15.0846 8.98219 14.9133 8.87964 14.7091C8.78216 14.4993 8.74081 14.2677 8.75964 14.0371C8.75741 14.006 8.74406 13.9768 8.72202 13.9547C8.69998 13.9327 8.67073 13.9193 8.63964 13.9171H5.11164C5.08674 13.9188 5.06329 13.9294 5.04563 13.9471C5.02798 13.9647 5.01733 13.9882 5.01564 14.0131V14.0851C5.01406 14.613 5.11648 15.1361 5.31705 15.6244C5.51762 16.1127 5.81241 16.5568 6.18458 16.9312C6.55676 17.3056 6.99904 17.603 7.48617 17.8065C7.97329 18.01 8.49573 18.1155 9.02364 18.1171H15.2876C16.445 18.1171 17.1087 17.0573 17.7643 16.0103C17.9516 15.7112 18.1383 15.4131 18.3356 15.1411C18.6716 14.6611 19.5116 14.2771 19.7516 14.1811C19.7996 14.1571 19.8236 14.1331 19.8236 14.0851Z" fill="#1E3600"/>
</svg>
